<svg width="19" height="19" viewBox="0 0 19 19" fill="none" xmlns="http://www.w3.org/2000/svg">
<path d="M14.2307 5.76928C14.2307 6.70391 13.473 7.46159 12.5384 7.46159C11.6038 7.46159 10.8461 6.70391 10.8461 5.76928C10.8461 4.83464 11.6038 4.07697 12.5384 4.07697C13.473 4.07697 14.2307 4.83464 14.2307 5.76928Z" fill="white"/>
<path fill-rule="evenodd" clip-rule="evenodd" d="M9.20232 0.0577394H9.10522C7.15197 0.0577289 5.62124 0.0577206 4.42691 0.218294C3.20444 0.382651 2.2398 0.725631 1.48266 1.48278C0.725509 2.23992 0.382529 3.20456 0.218172 4.42703C0.0575986 5.62136 0.0576068 7.15208 0.0576174 9.10533V9.20244C0.0576068 11.1557 0.0575986 12.6864 0.218172 13.8808C0.382529 15.1032 0.725509 16.0679 1.48266 16.825C2.2398 17.5822 3.20444 17.9251 4.42691 18.0895C5.62124 18.2501 7.15197 18.2501 9.10523 18.25H9.20232C11.1556 18.2501 12.6863 18.2501 13.8806 18.0895C15.1031 17.9251 16.0677 17.5822 16.8249 16.825C17.582 16.0679 17.925 15.1032 18.0894 13.8808C18.2499 12.6864 18.2499 11.1557 18.2499 9.20244V9.10535C18.2499 7.15209 18.2499 5.62136 18.0894 4.42703C17.925 3.20456 17.582 2.23992 16.8249 1.48278C16.0677 0.725631 15.1031 0.382651 13.8806 0.218294C12.6863 0.0577206 11.1556 0.0577289 9.20232 0.0577394ZM2.38014 2.38026C2.86215 1.89824 3.5143 1.62164 4.59603 1.47621C5.69601 1.32832 7.14143 1.32697 9.15377 1.32697C11.1661 1.32697 12.6115 1.32832 13.7115 1.47621C14.7932 1.62164 15.4454 1.89824 15.9274 2.38026C16.4094 2.86228 16.686 3.51443 16.8315 4.59615C16.9793 5.69613 16.9807 7.14155 16.9807 9.15389C16.9807 9.53486 16.9806 9.8955 16.9796 10.2373L16.7916 10.2113C14.3854 9.87814 12.1834 11.129 11.0622 13.0145C9.61568 9.35495 5.79322 6.85918 1.52208 7.47247L1.33105 7.50002C1.34067 6.31075 1.37227 5.36833 1.47609 4.59615C1.62152 3.51443 1.89812 2.86228 2.38014 2.38026Z" fill="white"/>
</svg>
