<svg width="22" height="22" viewBox="0 0 22 22" fill="none" xmlns="http://www.w3.org/2000/svg">
<path d="M10.9998 21.8333C9.51928 21.8333 8.11998 21.5487 6.80192 20.9796C5.48386 20.4105 4.333 19.6341 3.34934 18.6505C2.36567 17.6668 1.58928 16.5159 1.02017 15.1979C0.45106 13.8798 0.166504 12.4805 0.166504 11C0.166504 9.50135 0.460087 8.09301 1.04725 6.77496C1.63442 5.4569 2.42886 4.31038 3.43059 3.33538C4.43231 2.36038 5.60123 1.58868 6.93734 1.02029C8.27345 0.451904 9.69984 0.167348 11.2165 0.166626C12.6609 0.166626 14.0241 0.41507 15.3061 0.911959C16.588 1.40885 17.7122 2.09496 18.6785 2.97029C19.6448 3.84563 20.4122 4.88382 20.9806 6.08488C21.549 7.28593 21.8332 8.58124 21.8332 9.97079C21.8332 12.0472 21.2012 13.6408 19.9373 14.7515C18.6734 15.8623 17.1387 16.4173 15.3332 16.4166H13.329C13.1665 16.4166 13.0538 16.4618 12.991 16.552C12.9282 16.6423 12.8964 16.7416 12.8957 16.85C12.8957 17.0666 13.0311 17.3783 13.3019 17.7849C13.5728 18.1915 13.7082 18.6562 13.7082 19.1791C13.7082 20.0819 13.4601 20.75 12.9639 21.1833C12.4678 21.6166 11.8131 21.8333 10.9998 21.8333ZM5.0415 12.0833C5.51095 12.0833 5.89914 11.9298 6.20609 11.6229C6.51303 11.3159 6.6665 10.9277 6.6665 10.4583C6.6665 9.98885 6.51303 9.60065 6.20609 9.29371C5.89914 8.98676 5.51095 8.83329 5.0415 8.83329C4.57206 8.83329 4.18387 8.98676 3.87692 9.29371C3.56998 9.60065 3.4165 9.98885 3.4165 10.4583C3.4165 10.9277 3.56998 11.3159 3.87692 11.6229C4.18387 11.9298 4.57206 12.0833 5.0415 12.0833ZM8.2915 7.74996C8.76095 7.74996 9.14914 7.59649 9.45609 7.28954C9.76303 6.9826 9.9165 6.5944 9.9165 6.12496C9.9165 5.65551 9.76303 5.26732 9.45609 4.96038C9.14914 4.65343 8.76095 4.49996 8.2915 4.49996C7.82206 4.49996 7.43386 4.65343 7.12692 4.96038C6.81998 5.26732 6.6665 5.65551 6.6665 6.12496C6.6665 6.5944 6.81998 6.9826 7.12692 7.28954C7.43386 7.59649 7.82206 7.74996 8.2915 7.74996ZM13.7082 7.74996C14.1776 7.74996 14.5658 7.59649 14.8728 7.28954C15.1797 6.9826 15.3332 6.5944 15.3332 6.12496C15.3332 5.65551 15.1797 5.26732 14.8728 4.96038C14.5658 4.65343 14.1776 4.49996 13.7082 4.49996C13.2387 4.49996 12.8505 4.65343 12.5436 4.96038C12.2366 5.26732 12.0832 5.65551 12.0832 6.12496C12.0832 6.5944 12.2366 6.9826 12.5436 7.28954C12.8505 7.59649 13.2387 7.74996 13.7082 7.74996ZM16.9582 12.0833C17.4276 12.0833 17.8158 11.9298 18.1228 11.6229C18.4297 11.3159 18.5832 10.9277 18.5832 10.4583C18.5832 9.98885 18.4297 9.60065 18.1228 9.29371C17.8158 8.98676 17.4276 8.83329 16.9582 8.83329C16.4887 8.83329 16.1005 8.98676 15.7936 9.29371C15.4866 9.60065 15.3332 9.98885 15.3332 10.4583C15.3332 10.9277 15.4866 11.3159 15.7936 11.6229C16.1005 11.9298 16.4887 12.0833 16.9582 12.0833Z" fill="white"/>
</svg>
